<?xml version="1.0" encoding="UTF-8" standalone="no"?>
<svg
   sodipodi:docname="openvocs_logo_white.svg"
   inkscape:version="1.2.2 (732a01da63, 2022-12-09)"
   version="1.1"
   id="svg4185"
   viewBox="0 0 600.00005 600.00002"
   height="600"
   width="600"
   xmlns:inkscape="http://www.inkscape.org/namespaces/inkscape"
   xmlns:sodipodi="http://sodipodi.sourceforge.net/DTD/sodipodi-0.dtd"
   xmlns="http://www.w3.org/2000/svg"
   xmlns:svg="http://www.w3.org/2000/svg"
   xmlns:rdf="http://www.w3.org/1999/02/22-rdf-syntax-ns#"
   xmlns:cc="http://creativecommons.org/ns#"
   xmlns:dc="http://purl.org/dc/elements/1.1/">
  <defs
     id="defs4187" />
  <sodipodi:namedview
     inkscape:document-rotation="0"
     units="px"
     inkscape:window-maximized="1"
     inkscape:window-y="-8"
     inkscape:window-x="-8"
     inkscape:window-height="1017"
     inkscape:window-width="1920"
     showgrid="false"
     inkscape:current-layer="layer1"
     inkscape:document-units="px"
     inkscape:cy="358.63468"
     inkscape:cx="-408.07264"
     inkscape:zoom="0.59670749"
     inkscape:pageshadow="2"
     inkscape:pageopacity="0.0"
     borderopacity="1.0"
     bordercolor="#666666"
     pagecolor="#ffffff"
     id="base"
     inkscape:showpageshadow="2"
     inkscape:pagecheckerboard="0"
     inkscape:deskcolor="#d1d1d1" />
  <metadata
     id="metadata4190">
    <rdf:RDF>
      <cc:Work
         rdf:about="">
        <dc:format>image/svg+xml</dc:format>
        <dc:type
           rdf:resource="http://purl.org/dc/dcmitype/StillImage" />
        <dc:title />
      </cc:Work>
    </rdf:RDF>
  </metadata>
  <g
     transform="translate(0,-452.36201)"
     id="layer1"
     inkscape:groupmode="layer"
     inkscape:label="Ebene 1">
    <ellipse
       ry="300"
       rx="300.00003"
       cy="752.36218"
       cx="300.00003"
       id="path839"
       style="fill:#ffffff;stroke:#000000;fill-opacity:0.25" />
    <rect
       y="452.36215"
       x="0"
       height="600.00006"
       width="600.00006"
       id="rect4143"
       style="opacity:1;fill:none;fill-opacity:1;stroke:none;stroke-width:1;stroke-linecap:round;stroke-linejoin:round;stroke-miterlimit:4;stroke-dasharray:none;stroke-opacity:1" />
    <g
       transform="matrix(1.9090911,0,0,1.9090911,-517.67263,-869.8556)"
       style="fill:#272822;fill-opacity:1"
       id="micro">
      <path
         id="path4087-4-8-6-5-6"
         d="m 391.59954,867.52158 -0.0136,34.25099 c 0.21278,15.62029 16.30586,29.04593 31.13544,29.22763 l -0.25547,24.6923 -30.80904,0.212 0,6.4475 73.07518,0 0,-6.4475 -30.90942,0 0.18715,-24.7437 c 17.01751,-0.5518 30.4083,-12.11818 30.65149,-30.14888 l 0.0423,-33.49034 -7.12253,0.21406 -0.15549,33.36388 c 0.29518,30.44548 -57.5984,30.38668 -57.75087,0.16122 l 0.24051,-33.50343 z"
         style="opacity:1;fill:#272822;fill-opacity:1;stroke:none;stroke-width:2;stroke-miterlimit:4;stroke-dasharray:none;stroke-opacity:1" />
      <path
         style="opacity:1;fill:#272822;fill-opacity:1;stroke:none;stroke-width:2;stroke-miterlimit:4;stroke-dasharray:none;stroke-opacity:1"
         d="m 428.69509,830.02694 c -13.61008,0 -24.656,8.74702 -24.656,19.52032 l 0,49.57254 c 0,0.0337 0,0.0662 0,0.10001 0,10.77346 11.04592,19.52049 24.656,19.52049 13.61017,0 24.65604,-8.74703 24.65604,-19.52049 0,-0.0337 0,-0.0662 0,-0.10001 l 0,-49.57254 c 0,-10.7733 -11.04587,-19.52032 -24.65604,-19.52032 z"
         id="path4089-7-2-3-4-2" />
      <path
         id="path4101-4-8-2-6"
         d="m 300.7988,729.76839 c -18.33778,0 -33.2035,13.20194 -33.2035,29.46204 l 0,41.10522 66.40735,0 0,-41.10522 c 0,-16.2601 -14.86609,-29.46204 -33.20385,-29.46204 z"
         style="fill:#ffffff;fill-opacity:1;stroke:none;stroke-width:2;stroke-miterlimit:4;stroke-dasharray:none;stroke-opacity:1"
         transform="matrix(0.52380947,0,0,0.52380947,271.16183,455.6386)" />
    </g>
    <g
       style="fill:#272822;fill-opacity:1"
       transform="matrix(1.9090911,0,0,1.9090911,61.363635,-1022.6024)"
       id="headphone">
      <path
         id="path4093-5-3-8-3-5"
         d="m 123.21965,822.3622 c -43.238226,0 -90.787205,30.84645 -90.787205,88.31536 l 0,29.19724 c -1.149031,0.14807 -2.372916,0.26234 -3.70065,0.32237 0,0 -8.396545,10.36484 0,22.47806 7.132793,0.45112 11.585452,2.14486 14.799981,4.42382 0,-18.80718 0,-37.61431 0,-56.42149 0,-41.586 41.675208,-66.30646 79.386944,-66.30646 37.71185,0 83.41133,25.04986 83.41133,66.30646 0.0504,18.87125 0.13798,37.45568 0.13798,56.42149 3.21453,-2.27896 7.66734,-3.9727 14.79998,-4.42382 8.39685,-12.11322 2.5e-4,-22.47806 0,-22.47806 -1.39826,-0.0634 -2.6601,-0.1871 -3.86118,-0.34775 -0.0146,-9.8702 -0.0201,-21.37494 0.0232,-29.17186 0.32458,-57.85524 -50.97176,-88.31536 -94.20994,-88.31536 z"
         style="opacity:1;fill:#272822;fill-opacity:1;stroke:none;stroke-width:2;stroke-miterlimit:4;stroke-dasharray:none;stroke-opacity:1" />
      <path
         id="path4164-2-3-9-6-0"
         d="m 79.65528,911.87484 c -22.278852,0.12259 -23.443035,11.37627 -30.699207,19.22587 l 0,41.45032 c 7.553825,7.87666 8.542125,19.06543 30.699207,19.15331 0,-0.0915 -0.354435,-43.15254 0,-79.8295 z"
         style="opacity:1;fill:#272822;fill-opacity:1;stroke:none;stroke-width:2;stroke-miterlimit:4;stroke-dasharray:none;stroke-opacity:1" />
      <path
         style="opacity:1;fill:#272822;fill-opacity:1;stroke:none;stroke-width:2;stroke-miterlimit:4;stroke-dasharray:none;stroke-opacity:1"
         d="m 170.31286,911.87484 c 22.2786,0.12259 23.44299,11.37627 30.69901,19.22587 l 0,41.45032 c -7.55388,7.87666 -8.54203,19.06543 -30.69901,19.15331 0,-0.0915 0.35424,-43.15254 0,-79.8295 z"
         id="path4173-9-4-8-6-6" />
    </g>
  </g>
</svg>
