<?xml version="1.0" encoding="UTF-8" standalone="no"?>
<svg
   height="512"
   width="604"
   id="ov_icons"
   version="1.1"
   sodipodi:docname="ov_icons.svg"
   inkscape:version="1.4 (86a8ad7, 2024-10-11)"
   xml:space="preserve"
   xmlns:inkscape="http://www.inkscape.org/namespaces/inkscape"
   xmlns:sodipodi="http://sodipodi.sourceforge.net/DTD/sodipodi-0.dtd"
   xmlns="http://www.w3.org/2000/svg"
   xmlns:svg="http://www.w3.org/2000/svg"
   xmlns:rdf="http://www.w3.org/1999/02/22-rdf-syntax-ns#"
   xmlns:cc="http://creativecommons.org/ns#"
   xmlns:dc="http://purl.org/dc/elements/1.1/"><sodipodi:namedview
     id="namedview57"
     pagecolor="#ffffff"
     bordercolor="#666666"
     borderopacity="1.0"
     inkscape:pageshadow="2"
     inkscape:pageopacity="0.0"
     inkscape:pagecheckerboard="0"
     showgrid="false"
     inkscape:zoom="2"
     inkscape:cx="29.25"
     inkscape:cy="41.25"
     inkscape:window-width="1920"
     inkscape:window-height="991"
     inkscape:window-x="-9"
     inkscape:window-y="-9"
     inkscape:window-maximized="1"
     inkscape:current-layer="ov_icons"
     inkscape:showpageshadow="2"
     inkscape:deskcolor="#d1d1d1" /><metadata
     id="metadata"><rdf:RDF><cc:Work
         rdf:about=""><dc:format>image/svg+xml</dc:format><dc:type
           rdf:resource="http://purl.org/dc/dcmitype/StillImage" /></cc:Work></rdf:RDF></metadata><defs
     id="ov_icon_defs"><symbol
       id="ov_microphone"
       viewBox="0 0 297.096 512"><title
         id="ov_microphone_title">ov_microphone</title><path
         style="stroke-width:1.00501585"
         id="microphone_path1"
         d="M 2.4339622,144.01517 2.3812783,276.54113 C 1.8444716,349.22105 53.821592,394.24728 128.88245,397.67054 l -0.98846,79.46064 -125.2382598,0.82035 v 32.98715 H 299.47282 V 477.95153 H 171.83615 l 0.72411,-79.6596 c 74.0058,-2.13505 127.05784,-49.48807 126.63869,-124.69395 l 0.16367,-129.58281 -35.59905,0.82826 -0.60163,129.0935 c 1.14213,117.80145 -222.863137,117.57394 -223.453073,0.6238 l 0.930589,-129.63345 z" /><path
         id="microphone_path2"
         d="m 151.99636,-1.06131 c -52.660941,0 -95.40047,33.844485 -95.40047,75.529185 V 266.27689 c 0,0.13037 0,0.25612 0,0.38695 0,41.6853 42.739529,75.52984 95.40047,75.52984 52.66127,0 95.40061,-33.84454 95.40061,-75.52984 0,-0.13037 0,-0.25615 0,-0.38695 V 74.467875 c 0,-41.6847 -42.73934,-75.529185 -95.40061,-75.529185 z" /><path
         id="microphone_path3"
         style="fill:#ffffff;fill-opacity:1;stroke:none;stroke-width:1.00501585"
         d="m 152.19504,36.372199 c -33.78594,0 -61.174895,24.323559 -61.174895,54.281538 V 166.38695 H 213.3706 V 90.653737 c 0,-29.957979 -27.38963,-54.281538 -61.17556,-54.281538 z" /></symbol><symbol
       id="ov_headphone"
       viewBox="0 0 604.693 512"><title
         id="ov_headphone_title">ov_headset</title><path
         id="headphone_path1"
         d="m 178.75887,269.10468 c -67.35933,0.37064 -74.83913,34.39577 -96.777912,58.12875 v 125.32359 c 22.838722,23.8148 29.786742,57.64364 96.777912,57.90935 0,-0.27664 -1.07163,-130.4702 0,-241.36169 z" /><path
         id="headphone_path2"
         d="m 425.13935,269.10468 c 67.35857,0.37064 74.83901,34.39577 96.7773,58.12875 v 125.32359 c -22.83888,23.8148 -29.78645,57.64364 -96.7773,57.90935 0,-0.27664 1.07107,-130.4702 0,-241.36169 z" /><path
         id="headphone_path3"
         d="m 296.61447,-1.53363 c -130.72927,0 -274.491937,93.263153 -274.491937,267.0184 v 88.27681 c -3.474053,0.44768 -7.174428,0.79316 -11.188785,0.97467 0,0 -25.386656,31.33772 0,67.96161 21.565748,1.36395 44.928024,6.48491 54.64704,13.37527 V 265.48477 c 0,-125.73383 116.103692,-194.535375 230.123802,-194.535375 114.02045,0 242.2914,69.797485 242.2914,194.535375 0.15253,57.05654 0.41718,113.2459 0.41718,170.58836 9.719,-6.89036 33.08177,-12.01132 54.64706,-13.37527 25.38758,-36.62389 7.4e-4,-67.96161 0,-67.96161 -4.22762,-0.1916 -8.04272,-0.56568 -11.67416,-1.05141 -0.0439,-29.8422 -0.0608,-64.62637 0.0702,-88.20007 C 582.43757,90.561471 427.3449,-1.53363 296.61577,-1.53363 Z" /></symbol><symbol
       id="ov_user"
       viewBox="0 0 459.974 512"><title
         id="ov_user_title">ov_user</title><circle
         cx="235.96707"
         cy="117.712"
         r="117.40776"
         id="ov_user_head" /><path
         id="ov_user_body"
         d="m 115.76355,261.56481 c -31.715985,0 -59.803195,20.48012 -69.49992,50.67883 -11.545106,35.95611 -27.233367,84.81203 -40.2154564,125.24233 -5.59693236,17.43106 -2.5281546,36.48609 8.2580724,51.278 10.785862,14.79311 27.991355,23.54027 46.298089,23.54027 0,0 111.505035,0 172.686625,-0.001 v 0 c 61.18157,0.001 172.68661,0.001 172.68661,0.001 18.30673,0 35.51222,-8.74717 46.29808,-23.54027 10.78624,-14.79192 13.85501,-33.84693 8.25808,-51.27799 -12.98208,-40.43031 -28.67035,-89.28623 -40.21545,-125.24234 -9.69674,-30.1987 -37.78394,-50.67883 -69.49992,-50.67883 h -14.19272 c -10.83921,0 -21.36188,3.65785 -29.86273,10.3831 -20.45469,16.17939 -45.9039,25.77664 -73.47195,25.77664 -27.56807,0 -53.01727,-9.59725 -73.47197,-25.77664 -8.50086,-6.72525 -19.02351,-10.3831 -29.86274,-10.3831 z" /></symbol><symbol
       id="ov_admin"
       viewBox="0 0 448.425 512"><title
         id="ov_admin_title">ov_admin</title><circle
         cx="236.13271"
         cy="116.83743"
         r="117.56608"
         id="ov_admin_head" /><path
         id="ov_admin_body"
         d="m 116.18165,260.63265 c -31.703246,0 -59.778994,20.47189 -69.471823,50.65848 -11.540468,35.94166 -27.222425,84.77812 -40.1992994,125.19218 -5.59468377,17.42406 -2.5271391,36.47143 8.2547544,51.25739 10.781529,14.78717 27.980108,23.53065 46.279494,23.53065 0,0 162.901224,2e-5 211.990964,-10e-4 2.95694,0 5.68484,-1.59052 7.1421,-4.16437 1.45604,-2.57262 1.41598,-5.7309 -0.10553,-8.26595 -1.45237,-2.41088 -3.00367,-5.09912 -4.59565,-7.95987 a 112.28708,110.0708 0 0 1 -22.42208,-58.84402 c -0.32577,-2.5446 -0.53918,-5.03056 -0.53918,-7.39015 0,-4.32996 0.3413,-8.70367 0.95452,-13.0825 a 112.28708,110.0708 0 0 1 69.02868,-88.62873 c 2.82459,-1.17223 5.71811,-2.23138 8.67957,-3.17352 a 112.28708,110.0708 0 0 1 3.23954,-0.99389 c 4.47254,-1.26999 9.09808,-2.25082 13.85193,-2.95382 a 112.28708,110.0708 0 0 1 1.19085,-0.16272 c 4.97694,-0.68089 10.08296,-1.07548 15.34206,-1.07548 14.28768,0 32.73542,2.21893 45.47733,6.74832 2.87936,1.01959 6.0886,0.31892 8.28054,-1.80878 2.19196,-2.12889 2.98849,-5.31508 2.05377,-8.22353 -9.69163,-30.18658 -37.76758,-50.65848 -69.47081,-50.65848 -5.03252,0 -9.86249,-4e-5 -14.1882,0.002 -10.83486,0 -21.35211,3.65657 -29.84954,10.3779 -20.4477,16.17169 -45.88667,25.7651 -73.44363,25.7651 -27.55698,0 -52.99597,-9.59338 -73.44244,-25.76629 -8.49744,-6.72254 -19.01586,-10.37909 -29.85074,-10.37909 z" /><path
         d="m 378.18162,343.44564 c -0.59539,-4.38448 -4.21701,-7.73008 -8.63433,-7.9772 -3.35622,-0.19232 -6.72009,-0.19232 -10.07631,0.001 -4.4173,0.24655 -8.03838,3.59271 -8.63324,7.97663 -0.46459,3.4141 -1.01128,7.44242 -1.44963,10.67133 -0.46734,3.44478 -2.83032,6.33506 -6.11375,7.47857 -2.45492,0.84817 -4.85675,1.84376 -7.19235,2.98125 -3.13185,1.51719 -6.85089,1.14405 -9.61936,-0.96436 -2.58571,-1.96758 -5.80731,-4.42171 -8.54022,-6.50327 -3.52313,-2.68318 -8.45538,-2.48757 -11.75469,0.46683 -2.51129,2.24264 -4.89287,4.62775 -7.13162,7.1438 -2.94304,3.29629 -3.13733,8.21608 -0.46406,11.73428 2.08389,2.74509 4.54537,5.98496 6.51762,8.58046 2.1014,2.76644 2.47243,6.47807 0.96041,9.60561 -1.13991,2.34346 -2.13752,4.75377 -2.98739,7.21722 -1.14099,3.28534 -4.03096,5.65071 -7.47691,6.11973 -3.22052,0.43943 -7.23614,0.98571 -10.64106,1.44925 -4.38339,0.59614 -7.72757,4.21736 -7.97491,8.63416 -0.19263,3.36807 -0.19263,6.74436 10e-4,10.11243 0.24736,4.41625 3.59099,8.03692 7.97383,8.63305 3.40491,0.46464 7.42054,1.01092 10.64106,1.44925 3.4465,0.46903 6.33701,2.83441 7.47801,6.12029 0.84877,2.46399 1.84638,4.87431 2.98518,7.21832 1.51202,3.12699 1.14099,6.83861 -0.9604,9.60396 -1.97115,2.59661 -4.43263,5.83646 -6.51761,8.58046 -2.67326,3.5193 -2.479,8.43908 0.4646,11.73593 2.2393,2.5155 4.62088,4.9006 7.13271,7.14215 3.29931,2.95439 8.23102,3.15 11.7536,0.46683 2.73346,-2.08101 5.95506,-4.5346 8.5402,-6.50327 2.76849,-2.10896 6.48808,-2.48155 9.62047,-0.96435 2.33506,1.13804 4.73689,2.13416 7.19181,2.98343 3.28234,1.14297 5.64477,4.03326 6.11266,7.47749 0.43942,3.22889 0.98612,7.25722 1.44963,10.67187 0.5954,4.38391 4.21647,7.73006 8.63433,7.97718 3.35622,0.19232 6.72009,0.19232 10.07631,-10e-4 4.41678,-0.24711 8.03784,-3.59273 8.63325,-7.97664 0.46459,-3.4141 1.01129,-7.44243 1.44962,-10.67132 0.46735,-3.44533 2.83032,-6.33508 6.11322,-7.47858 2.45545,-0.84818 4.85728,-1.8443 7.1929,-2.98124 3.13185,-1.51719 6.85088,-1.14407 9.61936,0.96434 2.58571,1.96758 5.8073,4.42117 8.54021,6.50272 3.52312,2.68373 8.45539,2.48813 11.75469,-0.46626 2.51127,-2.24266 4.89286,-4.62776 7.13162,-7.14381 2.9425,-3.2963 3.13731,-8.21608 0.46405,-11.73429 -2.08443,-2.74509 -4.54537,-5.98494 -6.51761,-8.58045 -2.10139,-2.76645 -2.47297,-6.47807 -0.9604,-9.60561 1.1399,-2.34346 2.13751,-4.75377 2.98737,-7.21722 1.14099,-3.28535 4.03096,-5.65072 7.47693,-6.11974 3.22049,-0.43942 7.23613,-0.98571 10.64105,-1.44925 4.38338,-0.59614 7.72756,-4.21736 7.97437,-8.63415 0.19318,-3.36807 0.19318,-6.74436 -0.001,-10.11243 -0.2468,-4.41625 -3.59097,-8.03691 -7.97327,-8.63305 -3.40492,-0.46465 -7.42056,-1.01093 -10.64159,-1.44926 -3.44598,-0.46901 -6.33649,-2.8344 -7.47748,-6.12029 -0.84877,-2.46399 -1.84638,-4.87429 -2.98519,-7.21831 -1.51203,-3.12753 -1.141,-6.83861 0.9604,-9.60451 1.97115,-2.59605 4.43209,-5.83592 6.51762,-8.58045 2.67326,-3.51876 2.47844,-8.43855 -0.46461,-11.7354 -2.2393,-2.51549 -4.62089,-4.9006 -7.13326,-7.1427 -3.29875,-2.95384 -8.23047,-3.14944 -11.75305,-0.46628 -2.73345,2.08047 -5.95504,4.5346 -8.54021,6.50329 -2.76848,2.10895 -6.48805,2.48153 -9.62045,0.96434 -2.33507,-1.13858 -4.7369,-2.13416 -7.19181,-2.98343 -3.28234,-1.14351 -5.64477,-4.03325 -6.11266,-7.47748 -0.43943,-3.22891 -0.98613,-7.25723 -1.44964,-10.67187 z m -13.67275,41.1363 c 21.24162,0 38.4873,17.26719 38.4873,38.53532 0,21.26812 -17.24568,38.53532 -38.4873,38.53532 -21.24163,0 -38.48676,-17.2672 -38.48676,-38.53532 0,-21.26813 17.24513,-38.53532 38.48676,-38.53532 z"
         id="ov_admin_cog" /></symbol><symbol
       id="ov_cog"
       viewBox="0 0 512 512"><title
         id="ov_cog_title">ov_cog</title><path
         d="m 295.29922,8.9760156 c -0.56559,-4.1588278 -3.86805,-7.410159 -8.03486,-7.9102409 -19.917,-2.345432 -40.04011,-2.345432 -59.9571,0.0032 -4.16522,0.5000819 -7.46608,3.7498153 -8.03168,7.907045 -1.85013,13.5884873 -5.90351,43.4176533 -7.64661,56.2440343 -0.49369,3.628389 -3.08837,6.620893 -6.6113,7.622654 -13.84891,3.963908 -27.19935,9.493567 -39.79725,16.480333 -3.19702,1.781447 -7.14655,1.500248 -10.06075,-0.715774 -10.30361,-7.83355 -34.26281,-26.058579 -45.17834,-34.361855 -3.33919,-2.540352 -7.97255,-2.505203 -11.27341,0.08788 -15.740592,12.425357 -29.971357,26.654524 -42.393519,42.398314 -2.591478,3.299264 -2.628226,7.931014 -0.08788,11.270214 8.300081,10.91712 26.52511,34.87472 34.363451,45.17832 2.216022,2.91422 2.497219,6.86534 0.715774,10.06395 -6.989961,12.59472 -12.521218,25.94674 -16.488321,39.79405 -1.001761,3.52135 -3.992666,6.11442 -7.619458,6.60811 -12.826381,1.7463 -42.65395,5.80127 -56.244034,7.64823 -4.1572309,0.56398 -7.408562,3.86644 -7.9086439,8.03326 -2.34543193,19.91701 -2.34543193,40.04171 0.0032,59.95871 0.5000819,4.16361 3.7498153,7.46447 7.9054479,8.03007 13.590084,1.85014 43.417653,5.90352 56.244034,7.64821 3.628389,0.4921 6.620892,3.08677 7.624251,6.60971 3.96231,13.84892 9.493567,27.20094 16.480337,39.79725 1.781437,3.19861 1.50024,7.14654 -0.715774,10.06076 -7.83515,10.30519 -26.060179,34.26279 -34.363455,45.17831 -2.540352,3.33921 -2.503605,7.97416 0.08788,11.27342 12.425358,15.7422 26.656123,29.97136 42.399916,42.39352 3.297654,2.59148 7.931014,2.62824 11.268614,0.0879 10.91712,-8.30008 34.87632,-26.5251 45.17832,-34.36186 2.91422,-2.21761 6.86534,-2.49881 10.06395,-0.71577 12.59631,6.98997 25.94675,12.51962 39.79566,16.48672 3.51974,1.00177 6.11441,3.99267 6.6065,7.61946 1.7479,12.82638 5.80128,42.65555 7.64822,56.24403 0.5656,4.15884 3.86805,7.41017 8.03487,7.91025 19.91699,2.34543 40.0401,2.34543 59.9571,-0.003 4.16522,-0.50009 7.46608,-3.74982 8.03007,-7.90705 1.85174,-13.58849 5.90513,-43.41765 7.64822,-56.24403 0.49369,-3.6284 3.08836,-6.62089 6.6113,-7.62266 13.84891,-3.96391 27.19934,-9.49356 39.79726,-16.48033 3.197,-1.78144 7.14653,-1.50025 10.05915,0.71577 10.3052,7.83356 34.2644,26.05859 45.17832,34.36186 3.34081,2.54034 7.97415,2.5052 11.27342,-0.0879 15.74219,-12.42535 29.97296,-26.65452 42.39512,-42.39831 2.59148,-3.29926 2.62662,-7.93102 0.0879,-11.27022 -8.3001,-10.91712 -26.52513,-34.87472 -34.36346,-45.17833 -2.21762,-2.91421 -2.49723,-6.86533 -0.71578,-10.06394 6.98997,-12.59472 12.52123,-25.94674 16.48833,-39.79406 1.00016,-3.52134 3.99266,-6.11442 7.61945,-6.60811 12.82638,-1.74789 42.65395,-5.80126 56.24404,-7.64822 4.15723,-0.56558 7.40856,-3.86804 7.90864,-8.03326 2.34543,-19.917 2.34543,-40.0417 -0.003,-59.9587 -0.50008,-4.16362 -3.7498,-7.46608 -7.90544,-8.03007 -13.59009,-1.85015 -43.41766,-5.90512 -56.24404,-7.64822 -3.62999,-0.49209 -6.62248,-3.08836 -7.62424,-6.6097 -3.96231,-13.84891 -9.49357,-27.20094 -16.48033,-39.79726 -1.78145,-3.1986 -1.50025,-7.14653 0.71576,-10.06075 7.83514,-10.3052 26.06017,-34.2628 34.36345,-45.17832 2.54036,-3.33921 2.50362,-7.97415 -0.0879,-11.273415 -12.42536,-15.742196 -26.65613,-29.971362 -42.39992,-42.395122 -3.29767,-2.58988 -7.93101,-2.626628 -11.26862,-0.08628 -10.91712,8.300081 -34.87632,26.52511 -45.17832,34.361858 -2.91582,2.217618 -6.86535,2.498807 -10.06555,0.715774 C 336.75347,82.33647 323.40305,76.806809 309.55413,72.839707 306.03279,71.837946 303.43971,68.84704 302.94602,65.220248 301.19974,52.393867 297.14635,22.564701 295.2994,8.9762146 Z M 257.28501,142.94044 c 62.01654,0 112.36664,50.35011 112.36664,112.36665 0,62.01654 -50.3501,112.36664 -112.36664,112.36664 -62.01654,0 -112.36504,-50.3501 -112.36504,-112.36664 0,-62.01654 50.3485,-112.36665 112.36504,-112.36665 z"
         id="ov_cog_path" /></symbol><symbol
       id="ov_bars"
       viewBox="0 0 512 512"><title
         id="ov_bars_title">ov_bars</title><path
         d="M 9.1139615,220.88879 H 501.16373 c 5.50912,0 9.97513,4.46601 9.97513,9.97513 v 47.66697 c 0,5.50911 -4.46601,9.97512 -9.97513,9.97512 H 9.1139615 c -5.5091101,0 -9.97512635,-4.46601 -9.97512635,-9.97512 v -47.66697 c 0,-5.50912 4.46601625,-9.97513 9.97512635,-9.97513 z"
         id="ov_bars_middle" /><path
         d="M 9.1139489,0.41553004 H 501.16372 c 5.50912,0 9.97513,4.46601616 9.97513,9.97512596 v 47.666967 c 0,5.509109 -4.46601,9.975126 -9.97513,9.975126 H 9.1139489 c -5.5091101,0 -9.9751263,-4.466016 -9.9751263,-9.975126 V 10.390656 c 0,-5.5091098 4.4660162,-9.97512598 9.9751263,-9.97512596 z"
         id="ov_bars_top" /><path
         d="M 9.1139202,444.79831 H 501.16369 c 5.50912,0 9.97513,4.46601 9.97513,9.97512 v 47.66697 c 0,5.50911 -4.46601,9.97513 -9.97513,9.97513 H 9.1139202 c -5.5091101,0 -9.97512625,-4.46602 -9.97512625,-9.97513 v -47.66697 c 0,-5.50911 4.46601615,-9.97512 9.97512625,-9.97512 z"
         id="ov_bars_bottom" /></symbol><symbol
       id="ov_link"
       viewBox="0 0 512 512"><title
         id="ov_link_title">ov_link</title><path
         id="ov_link_bottom"
         d="m 276.94121,174.60443 c -19.74936,0.29055 -39.67275,5.39056 -58.01435,15.79261 L 62.074474,279.35271 C 3.3814294,312.6393 -17.030744,387.69439 16.520861,446.85476 50.072463,506.01512 124.96372,527.02108 183.65676,493.73452 l 156.85241,-88.95567 c 48.86726,-27.71408 71.16352,-84.3784 57.90616,-136.72018 l -52.8259,29.93888 c -1.00986,20.02391 -12.55586,45.85264 -31.16894,56.40865 l -155.23432,88.03807 c -29.04321,16.47124 -76.940519,3.27725 -93.543198,-25.99768 -16.602679,-29.27491 -2.37793,-73.1703 26.66528,-89.64159 L 247.54259,238.76712 c 15.01716,-8.51669 39.61701,-7.06196 54.98426,-2.31746 L 359.06043,204.4111 C 336.09332,184.67036 306.7182,174.1663 276.9412,174.60439 Z" /><path
         id="ov_link_top"
         d="M 387.23439,-2.4464898 C 367.48502,-2.1559266 347.56164,2.9440914 329.22006,13.346146 L 172.36764,102.3018 c -48.83977,27.6985 -71.13776,84.31451 -57.92787,136.63171 l 54.30106,-30.87767 c 1.04838,-19.97819 15.28085,-47.08882 33.85556,-57.6231 L 362.6125,58.359487 c 28.93995,-16.652048 68.78025,-1.305374 85.38293,27.969557 16.60269,29.274936 5.09302,74.567816 -23.96044,91.021036 l -161.36836,91.38433 c -15.04251,8.53105 -35.58077,5.70226 -50.96812,0.92863 l -57.95113,32.94484 c 38.20155,32.88495 94.17845,40.1772 140.20259,14.07557 L 450.80236,227.72794 C 509.49538,194.44137 529.90757,119.38609 496.35595,60.225713 473.28923,19.552969 430.68297,-3.0857267 387.23439,-2.4464898 Z" /></symbol><symbol
       id="ov_unlink"
       viewBox="0 0 512 512"><title
         id="ov_unlink_title">ov_unlink</title><path
         style="stroke-width:1.00023639"
         d="M 98.579886,260.9657 61.634688,281.94226 C 2.9597252,315.25853 -17.400218,390.30074 16.197195,449.41492 49.794608,508.52912 124.70869,529.47336 183.38364,496.1571 l 156.80459,-89.03515 c 11.3943,-6.4698 21.29975,-14.53695 29.66246,-23.74414 L 312.66936,357.57507 158.87401,444.9032 c -29.03428,16.48595 -76.946227,3.3302 -93.571573,-25.92188 -16.625348,-29.25207 -2.42989,-73.14098 26.604372,-89.62695 l 70.064371,-39.78125 z"
         id="ov_unlink_bottom" /><path
         style="stroke-width:1.00023639"
         d="M 386.62424,0.01452727 C 366.87312,0.31915606 346.95227,5.4313216 328.61636,15.842653 L 171.81177,104.87976 c -8.35859,4.7461 -15.92541,10.34506 -22.66893,16.625 l 60.31172,27.2168 152.58971,-87.906251 c 28.93086,-16.666597 68.78611,-1.35364 85.41146,27.898437 16.62536,29.252084 5.14651,74.537924 -23.89802,91.005854 l -64.44062,36.53711 64.38591,29.05469 26.86231,-15.25195 C 509.04026,196.7432 529.40022,121.70098 495.8028,62.586793 472.70459,21.945789 430.07667,-0.65565605 386.62424,0.01452727 Z"
         id="ov_unlink_top" /><path
         d="M 63.235055,136.83222 473.07418,321.77286 452.77826,366.70728 42.939136,181.76665 Z"
         id="ov_unlink_line" /></symbol><symbol
       id="ov_plus"
       viewBox="0 0 512 512"><title
         id="ov_plus_title">ov_plus</title><path
         d="m 232.2832,0 c -5.45883,0 -9.88281,4.4654994 -9.88281,9.9746094 V 222.5 H 9.9746094 C 4.4654994,222.5 0,226.92594 0,232.38477 v 47.23046 C 0,285.07406 4.4654994,289.5 9.9746094,289.5 H 222.40039 v 212.52539 c 0,5.50912 4.42398,9.97461 9.88281,9.97461 h 47.23242 c 5.45884,0 9.88477,-4.46549 9.88477,-9.97461 V 289.5 h 212.625 C 507.53451,289.5 512,285.07406 512,279.61523 V 232.38477 C 512,226.92594 507.53451,222.5 502.02539,222.5 h -212.625 V 9.9746094 C 289.40039,4.4654994 284.97445,0 279.51562,0 Z"
         id="ov_plus_path" /></symbol><symbol
       viewBox="0 0 512 512"
       id="ov_network"><title
         id="ov_network_title">ov_network</title><path
         d="m 417.71484,0 a 94.284584,94.354167 0 0 0 -94.28515,94.353516 94.284584,94.354167 0 0 0 1.16992,14.378904 l -150.58789,55 A 94.284584,94.354167 0 0 0 94.285156,119.67969 94.284584,94.354167 0 0 0 0,214.0332 94.284584,94.354167 0 0 0 94.285156,308.38867 94.284584,94.354167 0 0 0 161.50781,280.07031 L 328.7793,386.64453 A 94.284584,94.354167 0 0 0 323.43164,417.64648 94.284584,94.354167 0 0 0 417.71484,512 94.284584,94.354167 0 0 0 512,417.64648 94.284584,94.354167 0 0 0 417.71484,323.29102 94.284584,94.354167 0 0 0 349.39648,352.78711 L 182.66602,246.55664 a 94.284584,94.354167 0 0 0 5.90234,-32.52344 94.284584,94.354167 0 0 0 -1.01953,-13.13672 L 338.64648,145.71094 A 94.284584,94.354167 0 0 0 417.71484,188.70898 94.284584,94.354167 0 0 0 511.99805,94.353516 94.284584,94.354167 0 0 0 417.71484,0 Z"
         id="ov_network_path" /></symbol><symbol
       id="ov_phone"
       viewBox="0 0 515 515"><path
         d="m 184.80216,211.30858 c 17.2795,31.1691 37.19403,61.08339 63.05018,88.36183 25.93946,27.44508 58.19673,52.4226 99.95051,73.76025 3.09621,1.50561 6.02494,1.50561 8.66079,0.45952 3.97483,-1.50561 8.03297,-4.81136 12.00697,-8.78536 3.0962,-3.0962 6.94562,-8.03297 10.9617,-13.43008 16.06593,-21.1281 35.93922,-47.36044 64.01212,-34.22323 0.62782,0.29287 1.08817,0.62699 1.71516,0.87861 l 93.63354,53.8449 c 0.29287,0.16747 0.62782,0.46035 0.87862,0.62782 12.34274,8.49331 17.44698,21.58845 17.57238,36.44082 0,15.10317 -5.56459,32.0898 -13.72296,46.44057 -10.79422,18.95259 -26.69268,31.50323 -45.01745,39.78782 -17.44698,8.03297 -36.85992,12.34191 -55.51964,15.10317 -29.28647,4.30894 -56.73237,1.54769 -84.80527,-7.07103 -27.44591,-8.49249 -55.10054,-22.50831 -85.3077,-41.16803 l -2.21759,-1.42229 C 256.80517,452.25308 241.8274,443.00654 227.14251,432.08692 173.42219,391.50463 118.65643,332.88962 82.968669,268.37508 53.054462,214.23731 36.737686,155.78895 45.649174,100.10267 50.586055,69.561225 63.681377,41.780783 86.524889,23.455765 106.43975,7.389977 133.25817,-1.3959965 167.983,1.7000111 c 3.97482,0.2928622 7.53137,2.5939525 9.41401,6.024666 L 237.43431,109.2238 c 8.78619,11.37997 9.87353,22.67579 5.06216,33.97244 -3.97399,9.24571 -12.00696,17.7811 -22.96866,25.72991 -3.2216,2.76126 -7.07102,5.56459 -11.12917,8.49332 -13.43008,9.74813 -28.70072,21.0027 -23.47109,34.22323 z"
         id="ov_phone_path" /><title
         id="ov_phone_tiitle">ov_phone</title></symbol><symbol
       id="ov_speaker_loud"
       viewBox="0 0 512 512"><title
         id="ov_speaker_l_title">ov_speaker_loud</title><path
         d="M 66.145887,164.26387 0,166.3971 v 179.19159 l 66.976727,2.24767 c 25.8945,19.47143 35.481193,110.02027 152.585843,108.65912 V 55.490317 C 114.3373,53.386171 89.070557,140.33442 66.145887,164.26387 Z M 375.94582,4.2393908 c -11.9054,-7.8182996 -15.11358,-4.52245429 -22.92617,7.4129852 -7.82325,11.914107 -4.49784,27.924022 7.40757,35.742321 70.63307,46.387155 112.78695,124.367493 112.78695,208.608873 0,84.24137 -42.15388,162.22171 -112.78695,208.60886 -11.90541,7.80764 -15.23082,23.82822 -7.40757,35.73167 7.5035,11.42345 10.58377,15.52993 22.92617,7.41298 C 461.12757,451.80237 512,357.67346 512,255.9929 512,154.31234 461.12757,60.194096 375.94582,4.2393908 Z m 45.725,251.7535092 c 0,-67.76215 -34.17076,-130.06323 -91.41689,-166.648172 -11.92674,-7.615643 -14.95371,-4.074476 -22.5105,7.956959 -7.55679,12.031433 -4.02887,27.956013 7.89786,35.582333 42.36705,27.08139 67.65937,73.09523 67.65937,123.10888 0,50.01365 -25.29232,96.02749 -67.65937,123.10889 -11.92673,7.61564 -15.45465,23.54023 -7.89786,35.58232 6.9386,11.05015 9.72045,16.14858 22.5105,7.95696 57.24613,-36.58495 91.41689,-98.87535 91.41689,-166.64817 z M 290.5524,174.00209 c -12.34239,-6.75169 -15.13649,-2.31067 -21.96691,10.07952 -6.82296,12.37666 -2.3022,27.94535 10.07216,34.78236 13.75997,7.56232 22.30799,21.80165 22.30799,37.12893 0,15.33794 -8.54802,29.56662 -22.29732,37.12892 -12.37438,6.83701 -16.88796,22.40176 -10.07217,34.78237 6.84823,12.43956 9.64583,16.85254 21.96691,10.07953 30.08861,-16.58589 48.78339,-47.99775 48.78339,-82.00149 0,-34.00373 -18.69478,-65.40492 -48.79405,-81.98014 z"
         id="ov_speaker_l_path" /></symbol><symbol
       id="ov_speaker_moderate"
       viewBox="0 0 512 512"><title
         id="ov_speaker_m_title">ov_speaker_moderate</title><path
         d="M 66.145887,164.26387 0,166.3971 v 179.19159 l 66.976727,2.24767 c 25.8945,19.47143 35.481193,110.02027 152.585843,108.65912 V 55.490317 C 114.3373,53.386171 89.070557,140.33442 66.145887,164.26387 Z M 421.67082,255.9929 c 0,-67.76215 -34.17076,-130.06323 -91.41689,-166.648172 -11.92674,-7.615643 -14.95371,-4.074476 -22.5105,7.956959 -7.55679,12.031433 -4.02887,27.956013 7.89786,35.582333 42.36705,27.08139 67.65937,73.09523 67.65937,123.10888 0,50.01365 -25.29232,96.02749 -67.65937,123.10889 -11.92673,7.61564 -15.45465,23.54023 -7.89786,35.58232 6.9386,11.05015 9.72045,16.14858 22.5105,7.95696 57.24613,-36.58495 91.41689,-98.87535 91.41689,-166.64817 z M 290.5524,174.00209 c -12.34239,-6.75169 -15.13649,-2.31067 -21.96691,10.07952 -6.82296,12.37666 -2.3022,27.94535 10.07216,34.78236 13.75997,7.56232 22.30799,21.80165 22.30799,37.12893 0,15.33794 -8.54802,29.56662 -22.29732,37.12892 -12.37438,6.83701 -16.88796,22.40176 -10.07217,34.78237 6.84823,12.43956 9.64583,16.85254 21.96691,10.07953 30.08861,-16.58589 48.78339,-47.99775 48.78339,-82.00149 0,-34.00373 -18.69478,-65.40492 -48.79405,-81.98014 z"
         id="ov_speaker_m_path"
         sodipodi:nodetypes="cccccccscscscccscscscscsc" /></symbol><symbol
       id="ov_speaker_soft"
       viewBox="0 0 512 512"><title
         id="ov_speaker_s_title">ov_speaker_soft</title><path
         d="M 66.145887,164.26387 0,166.3971 v 179.19159 l 66.976727,2.24767 c 25.8945,19.47143 35.481193,110.02027 152.585843,108.65912 V 55.490317 C 114.3373,53.386171 89.070557,140.33442 66.145887,164.26387 Z m 224.406513,9.73822 c -12.34239,-6.75169 -15.13649,-2.31067 -21.96691,10.07952 -6.82296,12.37666 -2.3022,27.94535 10.07216,34.78236 13.75997,7.56232 22.30799,21.80165 22.30799,37.12893 0,15.33794 -8.54802,29.56662 -22.29732,37.12892 -12.37438,6.83701 -16.88796,22.40176 -10.07217,34.78237 6.84823,12.43956 9.64583,16.85254 21.96691,10.07953 30.08861,-16.58589 48.78339,-47.99775 48.78339,-82.00149 0,-34.00373 -18.69478,-65.40492 -48.79405,-81.98014 z"
         id="ov_speaker_s_path"
         sodipodi:nodetypes="ccccccccscscscsc" /></symbol><symbol
       id="ov_close"
       viewBox="0 0 512 512"><title
         id="ov_close_title">ov_close</title><path
         id="ov_close_path"
         d="M 42.283203,0.00976563 C 39.758379,-0.09977616 37.418528,0.65764438 35.730469,2.3457031 L 2.3457031,35.730469 c -3.85842,3.85842 -2.85136706,11.11934 2.2480469,16.21875 L 208.64453,256 4.59375,460.05078 c -5.09945615,5.09944 -6.1064741,12.36032 -2.2480469,16.21875 L 35.730469,509.6543 c 3.858434,3.8584 11.119308,2.85137 16.21875,-2.24805 L 256,303.35547 460.05078,507.40625 c 5.09944,5.09945 12.36032,6.10648 16.21875,2.24805 l 33.38477,-33.38477 c 3.85841,-3.85843 2.85138,-11.11931 -2.24805,-16.21875 L 303.35547,256 507.40625,51.949219 c 5.0994,-5.099421 6.10647,-12.36033 2.24805,-16.21875 L 476.26953,2.3457031 C 472.41111,-1.512717 465.15019,-0.50566366 460.05078,4.59375 L 256,208.64453 51.949219,4.59375 C 49.080794,1.7253319 45.529405,0.15060506 42.283203,0.00976563 Z"
         style="stroke-width:1.1439" /></symbol><symbol
       id="ov_speaker_silent"
       viewBox="0 0 512 512"><path
         d="M 66.145887,164.26387 0,166.3971 v 179.19159 l 66.976727,2.24767 c 25.8945,19.47143 35.481193,110.02027 152.585843,108.65912 V 55.490317 C 114.3373,53.386171 89.070557,140.33442 66.145887,164.26387 Z"
         id="ov_speaker_n_path" /><path
         id="ov_speaker_n_path_2"
         d="m 282.34803,169.59433 c -1.48519,-0.0644 -2.86157,0.3811 -3.85455,1.37408 l -19.63808,19.63808 c -2.26966,2.26966 -1.67728,6.54079 1.32238,9.54044 l 56.52085,57.17559 -55.21139,55.21139 c -2.99968,2.99967 -3.59205,7.27077 -1.32238,9.54044 l 19.63808,19.63809 c 2.26967,2.26964 6.54077,1.67727 9.54044,-1.32238 l 55.21139,-55.2114 57.1756,53.90194 c 3.08673,2.90999 7.27077,3.59204 9.54043,1.32238 l 19.63809,-19.63809 c 2.26966,-2.26966 1.67728,-6.54077 -1.32238,-9.54044 l -57.17559,-53.90193 59.13978,-58.48505 c 2.99965,-2.99966 3.59204,-7.27078 1.32239,-9.54044 L 413.235,169.65895 c -2.26966,-2.26966 -6.52414,-1.66053 -9.54044,1.32237 l -59.13979,58.48505 -56.52085,-57.17558 c -1.68731,-1.68731 -3.77636,-2.61362 -5.68589,-2.69646 z"
         style="stroke-width:0.672882" /><title
         id="ov_speaker_n_title">ov_speaker_silent
</title></symbol><symbol
       id="ov_exit"
       viewBox="0 0 512 512"><title
         id="ov_exit_title">ov_exit</title><path
         d="m 172.41932,226.27964 c 0,-1.17022 0.46547,-2.29166 1.29289,-3.11918 0.82753,-0.82743 1.95049,-1.2929 3.12073,-1.2929 33.32858,0 244.20947,0 244.20947,0 v -51.25029 c 0,-1.58845 0.95746,-3.0202 2.42476,-3.629 1.46718,-0.60728 3.15753,-0.27187 4.28061,0.85252 18.44618,18.44629 69.49417,69.49274 83.26686,83.26695 0.91899,0.91749 1.43468,2.16313 1.43468,3.462 0,1.29876 -0.51569,2.5444 -1.43468,3.46199 -13.77269,13.77409 -64.82068,64.82056 -83.26686,83.26838 -1.12308,1.12295 -2.81343,1.45837 -4.28061,0.85108 -1.4673,-0.60878 -2.42476,-2.04054 -2.42476,-3.62898 v -51.2504 H 176.83294 c -1.17024,0 -2.2932,-0.46396 -3.12073,-1.29137 -0.82742,-0.82893 -1.29289,-1.95049 -1.29289,-3.12071 0,-11.91825 0,-44.66173 0,-56.58009 z"
         id="ov_exit_arrow" /><path
         id="ov_exit_door"
         d="M 27.977267,0.41602 A 27.977267,27.977267 0 0 0 0,28.393287 V 484.43875 a 27.977267,27.977267 0 0 0 27.977267,27.97727 H 361.831 a 27.977267,27.977267 0 0 0 27.97727,-27.97727 v -98.51761 h -65.26339 v 49.80914 a 15.98701,15.98701 0 0 1 -15.98701,15.98701 H 81.250387 A 15.98701,15.98701 0 0 1 65.263377,435.73028 V 77.099805 a 15.98701,15.98701 0 0 1 15.98701,-15.98701 H 308.55787 a 15.98701,15.98701 0 0 1 15.98701,15.98701 v 47.229205 h 65.26339 V 28.393287 A 27.977267,27.977267 0 0 0 361.831,0.41602 Z" /></symbol><symbol
       id="ov_reload"
       viewBox="0 0 512 512"><path
         id="ov_reload_path"
         style="stroke-width:1.43001;stroke-linecap:round;stroke-linejoin:round"
         d="M 253.77958,0.00968157 C 188.17751,0.57824757 122.79373,26.097246 73.327195,76.428726 -4.2289543,155.34094 -16.863945,266.96188 19.472737,354.38443 A 26.565037,26.565037 0 0 0 54.197998,368.71805 26.565037,26.565037 0 0 0 68.531629,333.99 C 39.999158,265.34364 49.220544,176.75369 111.21971,113.67046 181.66156,41.996906 291.44704,33.559866 371.23045,88.846356 l -36.5072,37.146774 c -0.99409,1.01146 -1.27953,2.52326 -0.72617,3.8292 0.5542,1.30494 1.84149,2.14951 3.25942,2.13664 23.29142,-0.20289 87.74335,-0.76171 105.13378,-0.91331 1.15948,-0.009 2.26787,-0.48011 3.08067,-1.30713 0.81289,-0.82709 1.26549,-1.94081 1.25405,-3.10021 -0.14973,-17.39051 -0.71151,-81.843324 -0.9133,-105.133784 -0.0114,-1.41884 -0.87817,-2.69158 -2.19251,-3.2231 -1.31537,-0.53062 -2.8211,-0.21829 -3.81521,0.79321 l -30.92122,31.46026 C 363.04879,16.395256 308.3548,-0.46331539 253.77958,0.00968157 Z M 471.4318,141.3937 a 26.565037,26.565037 0 0 0 -13.63259,1.81264 26.565037,26.565037 0 0 0 -14.33363,34.72527 c 28.53246,68.64637 19.31109,157.23909 -42.68808,220.32232 -70.72883,71.96554 -181.12433,80.18732 -260.98549,24.15379 l 34.35937,-34.56606 c 0.99983,-1.00582 1.2741,-2.53578 0.69827,-3.87387 -0.5767,-1.33709 -1.89401,-2.22182 -3.33485,-2.23998 -23.66785,-0.294 -89.160411,-1.11004 -106.831913,-1.32947 -1.178235,-0.0156 -2.299065,0.43762 -3.116978,1.25964 -0.81752,0.82251 -1.266019,1.94496 -1.242881,3.12256 0.331871,17.66377 1.56805,83.13089 2.013746,106.78724 0.0263,1.44115 0.918345,2.7501 2.25953,3.31807 1.342219,0.5671 2.870877,0.28208 3.871087,-0.72339 l 33.468419,-33.6695 c 100.9824,76.1341 245.76311,67.5673 336.737,-24.99728 77.55615,-78.91223 90.19113,-190.53317 53.85446,-277.95571 A 26.565037,26.565037 0 0 0 471.4318,141.3937 Z" /><title
         id="ov_reload_title">ov_reload</title></symbol><symbol
       id="ov_eye_close"
       viewBox="0 0 512 512"><title
         id="ov_eye_close_title">ov_eye_close</title><path
         style="stroke-miterlimit:10"
         d="M 99.251953,41.880859 C 46.796482,41.336846 12.499001,77.007319 3.3925781,87.84375 0.66188728,91.091277 0.59097309,95.893995 3.2402344,99.216797 l 1.5019531,1.882813 h 0.1035156 c 10.5874619,12.7864 43.7631949,47.31161 94.4335939,46.5 51.225893,-0.81777 85.181233,-37.21145 94.259763,-48.302735 2.72364,-3.326412 2.6749,-8.231551 -0.10937,-11.505859 l -0.004,-0.002 -0.002,-0.0039 C 184.18895,76.95622 150.28427,42.414517 99.251953,41.880859 Z m -0.103516,9.998047 C 144.82361,52.356543 176.38506,83.460238 185.2207,93.625 c -8.74686,10.49291 -40.42147,43.24736 -86.099606,43.97656 h -0.002 C 51.821325,138.35915 20.209281,104.24933 11.625,93.636719 20.363324,83.424836 52.157297,51.391563 99.148437,51.878906 Z"
         id="ov_eye_close_path" /><path
         style="stroke-miterlimit:10"
         d="m 97.449219,58.890625 c -19.745709,0 -35.859375,16.113666 -35.859375,35.859375 0,19.74571 16.113667,35.85938 35.859375,35.85937 19.745711,10e-6 35.861331,-16.11366 35.861331,-35.85937 0,-19.745709 -16.11562,-35.859376 -35.861331,-35.859375 z m 0,10 c 14.341311,-10e-7 25.861331,11.518067 25.861331,25.859375 0,14.34131 -11.52002,25.85938 -25.861331,25.85938 -14.341307,0 -25.859375,-11.51807 -25.859375,-25.85938 0,-14.341307 11.518067,-25.859375 25.859375,-25.859375 z"
         id="ov_eye_close_circle" /><path
         style="stroke-miterlimit:10"
         d="M 159.92383,24.603516 29.84375,154.67383 36.916016,161.74609 166.99609,31.675781 Z"
         id="ov_eye_close_line_1" /><path
         style="stroke-miterlimit:10"
         d="M 159.92383,24.603516 29.84375,154.67383 36.916016,161.74609 166.99609,31.675781 Z"
         id="ov_eye_close_line_2" /></symbol><symbol
       id="ov_eye"
       viewBox="0 0 524 291"><path
         id="ov_eye_path"
         d="M 247.54492,-5.9589844 C 150.73901,-3.6794673 58.591433,47.307621 -2.1429107,121.44453 -13.686508,140.74496 3.3441606,160.78464 16.732963,173.67136 82.737766,246.65949 181.78648,294.063 281.36637,283.42575 c 91.41646,-8.89971 175.28131,-60.87359 232.342,-131.57769 12.2275,-18.87635 -4.29838,-39.4909 -18.27404,-51.69585 C 430.62736,34.81418 340.77779,-8.8414691 247.54492,-5.9589844 Z m 6.2207,38.2968754 C 338.87362,31.758536 419.9427,74.78276 476.73242,136.49414 416.38373,205.35667 325.92031,253.91745 232.51667,245.44434 155.13204,238.733 84.793088,194.86382 35.164062,136.55468 90.60056,75.336828 169.95629,32.464891 253.76562,32.337891 Z" /><path
         id="ov_eye_cricle"
         d="m 249.29883,38.849609 c -56.41037,0.917035 -104.16927,56.850434 -95.81026,112.777661 5.81135,54.32864 61.54709,97.17389 115.64436,87.21304 54.4625,-7.83203 95.60845,-65.64081 82.90958,-119.68986 C 342.6738,72.365796 297.26637,35.968955 249.29883,38.849609 Z m 6.04101,38.322266 c 40.62136,-0.404865 72.17936,45.982625 56.69777,83.721285 -12.55951,36.13567 -61.12643,52.93666 -92.81265,30.71536 -31.32355,-19.98291 -38.03246,-68.96933 -10.81642,-95.226341 12.06775,-12.602772 29.46795,-19.818365 46.9313,-19.210304 z" /><title
         id="ov_eye_title">ov_eye</title></symbol><symbol
       id="ov_badge_1"
       viewBox="0 0 200 200"><path
         id="ov_badge_1_circle"
         d="M 100,0 C 44.771525,0 0,44.771525 0,100 0,155.22847 44.771525,200 100,200 155.22847,200 200,155.22847 200,100 200,44.771525 155.22847,0 100,0 Z m -5.828125,35 h 11.757815 v 119.49219 h 31.17187 v 11.21093 H 63 V 154.49219 H 94.171875 V 46.210938 L 63,59.335938 V 48.125 Z" /><title
         id="ov_badge_1_title">ov_badge_1</title></symbol><symbol
       id="ov_badge_2"
       viewBox="0 0 200 200"><path
         id="ov_badge_2_circle"
         d="M 100,0 C 44.771525,0 0,44.771525 0,100 0,155.22847 44.771525,200 100,200 155.22847,200 200,155.22847 200,100 200,44.771525 155.22847,0 100,0 Z m -2.091797,34 h 5.560547 c 4.43577,0 8.59743,0.789277 12.48633,2.369141 3.94966,1.579864 7.38411,3.858501 10.30078,6.835937 2.91667,2.977436 5.19531,6.563143 6.83594,10.75586 1.70139,4.131951 2.55078,8.811405 2.55078,14.037109 0,5.16494 -0.78928,10.360233 -2.36914,15.585937 -1.5191,5.225704 -3.55533,10.358932 -6.10742,15.402344 -2.49132,5.043412 -5.37695,9.936192 -8.65821,14.675782 -3.22048,4.73959 -6.53276,9.20572 -9.93554,13.39844 -7.96009,9.783 -16.983493,19.20007 -27.070317,28.2539 h 55.052737 v 11.21094 H 63 v -9.29687 c 11.362868,-9.35766 21.511051,-19.04817 30.443359,-29.07422 3.828132,-4.31425 7.565101,-8.90255 11.210941,-13.76368 3.64584,-4.86112 6.89604,-9.84308 9.75195,-14.947261 2.85591,-5.16494 5.13455,-10.391266 6.83594,-15.677734 1.76216,-5.347232 2.64258,-10.602638 2.64258,-15.767578 0,-3.828132 -0.57595,-7.171436 -1.73047,-10.027344 -1.15452,-2.855908 -2.70399,-5.225691 -4.64844,-7.109375 -1.94445,-1.883684 -4.194,-3.279946 -6.74609,-4.191406 -2.49132,-0.972224 -5.10351,-1.458985 -7.83789,-1.458984 h -4.466802 c -2.916672,0 -5.651037,0.546873 -8.203125,1.640624 -2.491324,1.093753 -4.678816,2.583113 -6.5625,4.466797 -1.883684,1.883684 -3.371092,4.100256 -4.464844,6.652344 -1.093752,2.491324 -1.640625,5.196609 -1.640625,8.113281 v 5.285157 L 65.826172,69.455078 v -3.371094 c 0,-4.435772 0.820309,-8.599385 2.460937,-12.488281 1.701392,-3.888896 4.00911,-7.290359 6.925782,-10.207031 C 78.129563,40.472 81.532979,38.193362 85.421875,36.552734 89.310771,34.851342 93.472431,34 97.908203,34 Z" /><title
         id="ov_badge_2_title">ov_badge_2</title></symbol><symbol
       id="ov_badge_3"
       viewBox="0 0 200 200"><path
         id="ov_badge_3_circle"
         d="M 100,0 C 44.771525,0 0,44.771525 0,100 0,155.22847 44.771525,200 100,200 155.22847,200 200,155.22847 200,100 200,44.771525 155.22847,0 100,0 Z m -2.826172,33 h 5.560552 c 4.43577,0 8.59742,0.851342 12.48632,2.552734 3.8889,1.640628 7.29231,3.919266 10.20899,6.835938 2.91667,2.916672 5.19531,6.318135 6.83593,10.207031 1.7014,3.888896 2.55274,8.052509 2.55274,12.488281 v 4.464844 c 0,3.098964 -0.42664,6.077686 -1.27734,8.933594 -0.78994,2.795144 -1.94379,5.407331 -3.4629,7.83789 -1.45833,2.43056 -3.22113,4.649085 -5.2871,6.654297 -2.06598,1.944448 -4.3737,3.614147 -6.92579,5.011719 2.55209,1.336808 4.85981,3.008452 6.92579,5.013672 2.06597,1.94445 3.82877,4.13194 5.2871,6.5625 1.51911,2.43056 2.67296,5.07378 3.4629,7.92969 0.8507,2.79514 1.27734,5.74283 1.27734,8.84179 v 8.93164 c 0,4.43578 -0.85134,8.59744 -2.55274,12.48633 -1.64062,3.8889 -3.91926,7.29231 -6.83593,10.20899 -2.91668,2.91667 -6.32009,5.22634 -10.20899,6.92773 -3.8889,1.64063 -8.05055,2.46094 -12.48632,2.46094 h -5.560552 c -4.435772,0 -8.628465,-0.82031 -12.578125,-2.46094 -3.888896,-1.70139 -7.290359,-4.01106 -10.207031,-6.92773 C 71.472,155.04426 69.162329,151.64085 67.460938,147.75195 65.82031,143.86306 65,139.7014 65,135.26562 v -3.37304 l 11.757812,-1.82227 v 5.19531 c 0,2.91668 0.546873,5.65104 1.640626,8.20313 1.093752,2.49132 2.583112,4.70984 4.466796,6.6543 1.944448,1.88368 4.16102,3.37109 6.652344,4.46484 2.552088,1.09375 5.286453,1.64063 8.203125,1.64063 h 4.466797 c 2.91667,0 5.62001,-0.54688 8.11133,-1.64063 2.55208,-1.09375 4.77061,-2.58116 6.65429,-4.46484 1.88369,-1.94446 3.37306,-4.16298 4.4668,-6.6543 1.09376,-2.55209 1.64063,-5.28645 1.64063,-8.20313 v -10.8457 c 0,-2.91667 -0.54687,-5.62195 -1.64063,-8.11328 -1.09374,-2.55209 -2.58311,-4.76866 -4.4668,-6.65234 -1.88368,-1.88368 -4.10221,-3.37305 -6.65429,-4.4668 -2.49132,-1.09375 -5.19466,-1.64062 -8.11133,-1.64062 h -8.75 V 92.335938 h 8.75 c 2.91667,-10e-7 5.62001,-0.546874 8.11133,-1.640626 2.55208,-1.093751 4.77061,-2.583112 6.65429,-4.466796 1.88369,-1.883684 3.37306,-4.071176 4.4668,-6.5625 1.09376,-2.552088 1.64063,-5.286453 1.64063,-8.203125 v -6.378907 c 0,-2.916672 -0.54687,-5.621957 -1.64063,-8.113281 -1.09374,-2.552088 -2.58311,-4.76866 -4.4668,-6.652344 -1.88368,-1.883684 -4.10221,-3.373044 -6.65429,-4.466797 -2.49132,-1.093751 -5.19466,-1.640625 -8.11133,-1.640624 h -4.466797 c -2.916672,0 -5.651037,0.546873 -8.203125,1.640624 -2.491324,1.093753 -4.707896,2.583113 -6.652344,4.466797 -1.883684,1.883684 -3.373045,4.100256 -4.466796,6.652344 -1.093752,2.491324 -1.640625,5.196609 -1.640626,8.113281 v 5.285157 L 65,68.455078 V 65.083984 C 65,60.648212 65.820309,56.484599 67.460938,52.595703 69.162329,48.706807 71.472,45.305344 74.388672,42.388672 77.305344,39.472 80.706807,37.193362 84.595703,35.552734 88.545363,33.851342 92.738056,33 97.173828,33 Z" /><title
         id="ov_badge_3_title">ov_badge_3</title></symbol><symbol
       id="ov_badge_4"
       viewBox="0 0 200 200"><path
         id="ov_badge_4_circle"
         d="M 100,0 C 44.771525,0 0,44.771525 0,100 0,155.22847 44.771525,200 100,200 155.22847,200 200,155.22847 200,100 200,44.771525 155.22847,0 100,0 Z m 13.06055,31 h 6.19726 v 96.88867 h 11.21094 v 11.21094 h -11.21094 v 22.60351 H 107.5 V 139.09961 H 55 v -5.56055 z M 107.5,63.173828 71.498047,127.88867 H 107.5 Z" /><title
         id="ov_badge_4_title">ov_badge_4</title></symbol><symbol
       id="ov_badge_5"
       viewBox="0 0 200 200"><path
         id="ov_badge_5_path"
         d="M 100,0 C 44.771525,0 0,44.771525 0,100 0,155.22847 44.771525,200 100,200 155.22847,200 200,155.22847 200,100 200,44.771525 155.22847,0 100,0 Z M 72.474609,34 H 128.3457 V 45.210938 H 83.501953 L 79.21875,85.40625 c 2.795144,-2.673616 6.045349,-4.73893 9.751953,-6.197266 3.706604,-1.5191 7.687929,-2.279296 11.941407,-2.279296 h 1.82227 c 4.43577,0 8.59742,0.851342 12.48632,2.552734 3.8889,1.640628 7.29231,3.919265 10.20899,6.835937 2.91667,2.916672 5.19531,6.349168 6.83593,10.298829 1.7014,3.888892 2.55274,8.050552 2.55274,12.486332 v 25.33984 c 0,4.43577 -0.85134,8.59743 -2.55274,12.48633 -1.64062,3.88889 -3.91926,7.29231 -6.83593,10.20898 -2.91668,2.91668 -6.32009,5.22439 -10.20899,6.92578 -3.8889,1.64063 -8.05055,2.46094 -12.48632,2.46094 h -5.560552 c -4.435772,0 -8.628465,-0.82031 -12.578125,-2.46094 -3.888896,-1.70139 -7.290359,-4.0091 -10.207031,-6.92578 C 71.472,154.222 69.162329,150.81858 67.460938,146.92969 65.82031,143.04079 65,138.87913 65,134.44336 v -2.00586 h 11.757812 v 2.00586 c 0,2.91667 0.546873,5.65104 1.640626,8.20312 1.093752,2.49132 2.583112,4.70789 4.466796,6.65235 1.944448,1.88368 4.16102,3.37304 6.652344,4.46679 2.552088,1.09376 5.286453,1.64063 8.203125,1.64063 h 4.466797 c 2.91667,0 5.62001,-0.54687 8.11133,-1.64063 2.55208,-1.09375 4.77061,-2.58311 6.65429,-4.46679 1.88369,-1.94446 3.37306,-4.16103 4.4668,-6.65235 1.09376,-2.55208 1.64063,-5.28645 1.64063,-8.20312 v -25.33984 c 0,-2.91668 -0.54687,-5.62001 -1.64063,-8.11133 -1.09374,-2.552094 -2.58311,-4.770615 -4.4668,-6.654299 -1.88368,-1.944448 -4.10221,-3.462889 -6.65429,-4.556641 -2.49132,-1.093752 -5.19466,-1.640625 -8.11133,-1.640625 h -4.466797 c -2.916672,0 -5.651037,0.546873 -8.203125,1.640625 -2.491324,1.093752 -4.707896,2.612193 -6.652344,4.556641 -1.883684,1.883684 -3.373045,4.102205 -4.466796,6.654299 -1.093752,2.49132 -1.640625,5.19465 -1.640626,8.11133 H 65 Z" /><title
         id="ov_badge_5_title">ov_badge_5</title></symbol><symbol
       id="ov_badge_6"
       viewBox="0 0 200 200"><path
         id="ov_badge_6_path"
         d="M 100,0 C 44.771525,0 0,44.771525 0,100 0,155.22847 44.771525,200 100,200 155.22847,200 200,155.22847 200,100 200,44.771525 155.22847,0 100,0 Z M 51.474609,34 H 107.3457 V 45.210938 H 62.501953 L 58.21875,85.40625 c 2.795144,-2.673616 6.045349,-4.73893 9.751953,-6.197266 3.706604,-1.5191 7.687926,-2.279296 11.941406,-2.279296 h 1.822266 c 4.435772,0 8.597433,0.851342 12.486328,2.552734 3.888897,1.640628 7.292307,3.919265 10.208987,6.835937 2.91667,2.916672 5.19531,6.349168 6.83593,10.298829 1.7014,3.888892 2.55274,8.050552 2.55274,12.486332 v 25.33984 c 0,4.43577 -0.85134,8.59743 -2.55274,12.48633 -1.64062,3.88889 -3.91926,7.29231 -6.83593,10.20898 -2.91668,2.91668 -6.32009,5.22439 -10.208987,6.92578 -3.888895,1.64063 -8.050556,2.46094 -12.486328,2.46094 h -5.560547 c -4.435772,0 -8.628465,-0.82031 -12.578125,-2.46094 -3.888896,-1.70139 -7.290359,-4.0091 -10.207031,-6.92578 C 50.472,154.222 48.162329,150.81858 46.460938,146.92969 44.820309,143.04079 44,138.87913 44,134.44336 v -2.00586 h 11.757812 v 2.00586 c 0,2.91667 0.546874,5.65104 1.640626,8.20312 1.093751,2.49132 2.583112,4.70789 4.466796,6.65235 1.944448,1.88368 4.16102,3.37304 6.652344,4.46679 2.552088,1.09376 5.286453,1.64063 8.203125,1.64063 H 81.1875 c 2.916672,0 5.620004,-0.54687 8.111328,-1.64063 2.552087,-1.09375 4.770613,-2.58311 6.654297,-4.46679 1.883684,-1.94446 3.373047,-4.16103 4.466795,-6.65235 1.09376,-2.55208 1.64063,-5.28645 1.64063,-8.20312 v -25.33984 c 0,-2.91668 -0.54687,-5.62001 -1.64063,-8.11133 -1.093748,-2.552094 -2.583111,-4.770615 -4.466795,-6.654299 -1.883684,-1.944448 -4.10221,-3.462889 -6.654297,-4.556641 -2.491324,-1.093752 -5.194656,-1.640625 -8.111328,-1.640625 h -4.466797 c -2.916672,0 -5.651037,0.546873 -8.203125,1.640625 -2.491324,1.093752 -4.707896,2.612193 -6.652344,4.556641 -1.883684,1.883684 -3.373045,4.102205 -4.466796,6.654299 -1.093753,2.49132 -1.640626,5.19465 -1.640626,8.11133 H 44 Z m 94.181641,10 h 7.97852 V 71.646484 H 181.4043 V 79.625 h -27.76953 v 27.70898 h -7.97852 V 79.625 h -27.58398 v -7.978516 h 27.58398 z" /><title
         id="ov_badge_6_title">ov_badge_6</title></symbol></defs></svg>
